<?xml version="1.0" encoding="UTF-8" standalone="no"?>
<!DOCTYPE svg PUBLIC "-//W3C//DTD SVG 1.1//EN" "http://www.w3.org/Graphics/SVG/1.1/DTD/svg11.dtd">
<svg width="100%" height="100%" viewBox="0 0 1920 1081" version="1.1" xmlns="http://www.w3.org/2000/svg" xmlns:xlink="http://www.w3.org/1999/xlink" xml:space="preserve" xmlns:serif="http://www.serif.com/" style="fill-rule:evenodd;clip-rule:evenodd;stroke-linejoin:round;stroke-miterlimit:2;">
    <g transform="matrix(0.313542,-0.949574,0.949574,0.313542,-146.037,946.052)">
        <path d="M433.878,-13.606C433.878,-18.021 437.463,-21.606 441.878,-21.606C446.294,-21.606 449.878,-18.021 449.878,-13.606C449.878,26.577 459.163,54.297 475.202,73.783C491.186,93.204 513.708,104.321 539.418,111.895C594.262,128.053 663.158,128.382 719.427,150.196C750.96,162.42 773.299,187.145 794.834,213.359C814.893,237.775 834.243,263.506 861.339,279.584C887.558,295.141 917.371,300.691 947.684,304.705C979.528,308.922 1011.93,311.433 1041.75,320.692C1053.76,324.419 1063.99,335.663 1073.9,342.786C1140.03,390.272 1165.45,462.462 1187.95,538.943C1189.19,543.178 1186.76,547.629 1182.53,548.875C1178.29,550.121 1173.84,547.694 1172.6,543.458C1151.12,470.467 1127.67,401.101 1064.57,355.782C1059.82,352.368 1055.03,347.904 1050.01,343.834C1045.91,340.522 1041.69,337.426 1037.01,335.973C1008.03,326.976 976.525,324.664 945.584,320.567C913.11,316.266 881.262,310.01 853.174,293.344C824.485,276.32 803.709,249.367 782.471,223.515C762.709,199.46 742.58,176.332 713.644,165.114C657.779,143.457 589.347,143.284 534.896,127.243C505.958,118.717 480.841,105.811 462.848,83.951C444.909,62.156 433.878,31.34 433.878,-13.606Z" style="fill:rgb(119,177,253);"/>
    </g>
</svg>
