<?xml version="1.0" encoding="UTF-8" standalone="no"?>
<!DOCTYPE svg PUBLIC "-//W3C//DTD SVG 1.1//EN" "http://www.w3.org/Graphics/SVG/1.1/DTD/svg11.dtd">
<svg width="100%" height="100%" viewBox="0 0 1920 1081" version="1.1" xmlns="http://www.w3.org/2000/svg" xmlns:xlink="http://www.w3.org/1999/xlink" xml:space="preserve" xmlns:serif="http://www.serif.com/" style="fill-rule:evenodd;clip-rule:evenodd;stroke-linejoin:round;stroke-miterlimit:2;">
    <g transform="matrix(-0.15814,0.987417,-0.987417,-0.15814,3260.32,823.328)">
        <path d="M-80.461,1345.51C-84.877,1345.51 -88.461,1341.93 -88.461,1337.51C-88.461,1333.1 -84.877,1329.51 -80.461,1329.51C-63.174,1329.51 -41.384,1326.18 -24.409,1329.99C34.992,1343.28 87.35,1391.74 115.56,1443.6C129.342,1468.94 141.098,1497.08 163.657,1516.09C193.804,1541.48 228.912,1548.09 264.06,1562.67C304.536,1579.45 348.02,1620.07 380.521,1649.21C402.942,1669.31 413.811,1696.22 422.335,1724.4C430.26,1750.6 436.113,1777.89 449.114,1800.8C472.77,1842.47 493.898,1846.35 515.829,1850.19C532.898,1853.19 550.262,1856.4 569.163,1872.62C586.714,1887.68 598.005,1910.2 607.521,1933.99C616.391,1956.16 623.749,1979.4 634.286,1997.66C636.493,2001.49 635.18,2006.38 631.356,2008.59C627.532,2010.8 622.635,2009.49 620.428,2005.66C609.543,1986.8 601.828,1962.83 592.666,1939.93C584.15,1918.64 574.451,1898.24 558.745,1884.76C542.606,1870.92 527.64,1868.51 513.066,1865.95C487.532,1861.48 462.742,1857.21 435.2,1808.69C421.629,1784.79 415.292,1756.38 407.021,1729.04C399.349,1703.68 390.017,1679.21 369.84,1661.12C338.54,1633.06 296.91,1593.61 257.93,1577.45C221.238,1562.23 184.82,1554.84 153.349,1528.33C129.259,1508.03 116.222,1478.31 101.504,1451.25C75.363,1403.18 27.141,1357.92 -27.904,1345.6C-43.821,1342.04 -64.253,1345.51 -80.461,1345.51Z" style="fill:rgb(119,177,253);"/>
    </g>
</svg>
